<svg height='100px' width='100px'  fill="#248232" xmlns="http://www.w3.org/2000/svg" xmlns:xlink="http://www.w3.org/1999/xlink" viewBox="0 0 100 100" version="1.1" x="0px" y="0px"><title>Machine Learning - Deep Learning by Sasha is Sasha. Public Domain. 2017</title><g stroke="none" stroke-width="1" fill="none" fill-rule="evenodd"><g fill-rule="nonzero" fill="#248232"><path d="M87.8342567,67.7144455 L65.4684021,78.8965289 C64.4890864,79.5914752 63.2922513,80 62,80 L38,80 C37.0062598,80 36.0689449,79.7584149 35.2435824,79.3307717 L11.2818298,67.3507996 L11.2819723,67.3504873 C9.33421565,66.359064 8,64.3353434 8,62 C8,59.7784013 9.20741278,57.8388089 11.0018212,56.8016401 L17.912583,49.9983467 L11.0099355,43.2030415 C9.21105368,42.1670348 8,40.2249458 8,38 C8,35.5714168 9.44288101,33.4798365 11.5181562,32.5357459 L35.1077572,20.7418354 C35.965501,20.2690294 36.9513329,20 38,20 L62,20 C63.2947826,20 64.493775,20.4101269 65.4741546,21.1075583 L87.8275239,32.2833995 C90.2475628,33.0564058 92,35.3235511 92,38 C92,40.2165355 90.7980846,42.1523485 89.0104387,43.1912544 L89.0116339,43.1932605 L82.0990509,49.9983467 L89.0116339,56.8034329 L89.0089752,56.8078954 C90.7974286,57.8465951 92,59.7828598 92,62 C92,64.6739662 90.2508125,66.9393878 87.8342567,67.7144455 Z M80.0096432,62.3430594 C80.0032432,62.2295213 80,62.1151394 80,62 C80,59.2724211 81.8200327,56.9699335 84.3118944,56.2407412 L80.0245289,52.0406081 L73.0650666,58.8918446 L80.0096432,62.3430594 Z M80.0105186,37.6417494 L73.0573378,41.0972403 L80.0245289,47.9560854 L84.309296,43.7584978 C81.8187676,43.0284657 80,40.7266308 80,38 C80,37.8797237 80.003539,37.7602741 80.0105186,37.6417494 Z M43.1973068,23 C43.5175559,23.5536151 43.7518887,24.1631488 43.8820735,24.810369 L46.7454338,34.1959356 L49.9739611,36.0765801 L53.2872408,34.1465666 L56.0897,24.960623 C56.2125139,24.2574012 56.4577712,23.5962672 56.8026932,23 L43.1973068,23 Z M42.3181682,30.1657527 C42.2298669,30.2572643 42.1386836,30.3459764 42.0447644,30.4317429 L41.3879741,31.0751699 L42.8590308,31.9320729 L42.3181682,30.1657527 Z M36.1499883,31.7093682 C33.7415885,30.9295335 32,28.6681517 32,26 C32,25.8794043 32.0035579,25.7596395 32.0105743,25.640805 L17.3470492,32.9713182 L29.189953,38.8963498 L36.3650156,31.8328658 L36.1499883,31.7093682 Z M19.9802406,62.4904844 L27.0387872,58.9826304 L19.987105,52.0406081 L15.6970577,56.2433684 C18.1843251,56.9754504 20,59.2756884 20,62 C20,62.1651379 19.9933286,62.3287176 19.9802406,62.4904844 Z M41.2902183,55.0182263 L46.0702228,57.8026195 L47.8404932,52 L43.6585886,52 C43.2179586,53.2466569 42.3770191,54.304215 41.2902183,55.0182263 Z M34.8438464,55.1037855 C33.1369073,54.0459796 32,52.1557593 32,50 C32,47.8868134 33.0924466,46.0287814 34.74339,44.9598539 L29.7486737,42.4776523 L22.0717821,49.9983467 L29.8278202,57.5965773 L34.8438464,55.1037855 Z M41.0002747,44.8028521 C42.5184006,45.6811478 43.615986,47.2055268 43.9170416,49 L48.0853779,49 L45.9327237,41.9699761 L41.0002747,44.8028521 Z M19.9886093,37.6272373 C19.9961661,37.7505221 20,37.8748133 20,38 C20,40.7233641 18.1855878,43.0229495 15.6996526,43.7558672 L19.987105,47.9560854 L26.9598969,41.0917266 L19.9886093,37.6272373 Z M57.1737116,31.8826644 L58.5999026,31.0518961 L58.0798408,30.5424157 C57.9463663,30.4271228 57.818027,30.3060462 57.6952122,30.1795755 L57.1737116,31.8826644 Z M46.9072717,65.4102595 L43.711929,75.8454402 L43.7109532,75.8451097 C43.5800265,76.2506538 43.4071025,76.6373259 43.1973068,77 L56.8026932,77 C56.5058421,76.486833 56.2828115,75.9256201 56.1481219,75.3308817 L53.1252131,65.4588267 L49.9739611,63.6489537 L46.9072717,65.4102595 Z M43.0783813,67.6093236 L41.1683195,68.7063381 L42.1064458,69.6253769 C42.2004672,69.7136692 42.2916415,69.8049582 42.3798161,69.8990912 L43.0783813,67.6093236 Z M48.7574742,59.3679662 L49.9739611,60.0765801 L51.2495898,59.3335156 L50.0088066,55.2814314 L48.7574742,59.3679662 Z M51.3648551,40.4477922 L49.9739611,39.6489537 L48.6423675,40.413734 L50.0088066,44.892669 L51.3648551,40.4477922 Z M54.0744663,42.0040156 L51.9322352,49 L56.0829584,49 C56.3823013,47.2157356 57.4691368,45.698501 58.9738563,44.8179047 L54.0744663,42.0040156 Z M54.9940664,39.0008341 L62.2186814,43.2092335 L68.0379008,40.2978649 L60.9441169,33.348414 L55.8245227,36.2887739 L54.9940664,39.0008341 Z M45.1345681,60.869523 L38.0350188,56.7920064 L32.0586362,59.7820042 L38.9275807,66.5111904 L44.3828746,63.3334355 L45.1345681,60.869523 Z M56.9540371,67.6578527 L57.6334803,69.884942 C57.7657399,69.744652 57.9046856,69.6107347 58.0498079,69.4836997 L58.8197674,68.7294061 L56.9540371,67.6578527 Z M53.9368742,57.7681496 L58.6853761,55.002107 C57.6103923,54.2883448 56.7787375,53.2373092 56.3414114,52 L52.1771199,52 L53.9368742,57.7681496 Z M44.2079621,36.3373412 L39.04397,33.371482 L31.9796681,40.2920506 L37.7667901,43.1873608 L45.0129976,38.9663835 L44.2079621,36.3373412 Z M55.6498001,63.3828045 L61.060296,66.5344642 L68.0456372,59.6912496 L62.0701449,56.7016972 L54.8726545,60.8354648 L55.6498001,63.3828045 Z M67.9934144,74.2836306 L82.6087503,66.977208 L70.8353082,61.0869283 L63.7249923,68.0866724 L64.5502154,68.5673719 C66.5887423,69.5259721 68,71.5981776 68,74 C68,74.0950763 67.9977886,74.189636 67.9934144,74.2836306 Z M32.0108623,74.3640386 C32.0036552,74.243615 32,74.1222344 32,74 C32,71.8198291 33.1628016,69.911245 34.9020526,68.8606 L34.9000015,68.8572894 L36.2629571,68.0633563 L29.268666,61.1778326 L17.4558885,67.0877919 L32.0108623,74.3640386 Z M63.7356846,31.7451202 L63.6231437,31.8097563 L70.8275968,38.9021737 L82.5927865,33.0160226 L67.993472,25.7176093 C67.997808,25.8111956 68,25.9053418 68,26 C68,28.7101891 66.2031008,31.0006898 63.7356846,31.7451202 Z M65.281728,55.0237941 L70.2763331,57.5059403 L77.9398518,49.9983467 L70.2685792,42.483157 L65.2688934,44.9678282 C66.9129699,46.0380068 68,47.8920587 68,50 C68,52.1024512 66.9186248,53.9523337 65.281728,55.0237941 Z M14,41 C15.6568542,41 17,39.6568542 17,38 C17,36.3431458 15.6568542,35 14,35 C12.3431458,35 11,36.3431458 11,38 C11,39.6568542 12.3431458,41 14,41 Z M14,65 C15.6568542,65 17,63.6568542 17,62 C17,60.3431458 15.6568542,59 14,59 C12.3431458,59 11,60.3431458 11,62 C11,63.6568542 12.3431458,65 14,65 Z M86,41 C87.6568542,41 89,39.6568542 89,38 C89,36.3431458 87.6568542,35 86,35 C84.3431458,35 83,36.3431458 83,38 C83,39.6568542 84.3431458,41 86,41 Z M86,65 C87.6568542,65 89,63.6568542 89,62 C89,60.3431458 87.6568542,59 86,59 C84.3431458,59 83,60.3431458 83,62 C83,63.6568542 84.3431458,65 86,65 Z M38,29 C39.6568542,29 41,27.6568542 41,26 C41,24.3431458 39.6568542,23 38,23 C36.3431458,23 35,24.3431458 35,26 C35,27.6568542 36.3431458,29 38,29 Z M38,77 C39.6568542,77 41,75.6568542 41,74 C41,72.3431458 39.6568542,71 38,71 C36.3431458,71 35,72.3431458 35,74 C35,75.6568542 36.3431458,77 38,77 Z M62,53 C63.6568542,53 65,51.6568542 65,50 C65,48.3431458 63.6568542,47 62,47 C60.3431458,47 59,48.3431458 59,50 C59,51.6568542 60.3431458,53 62,53 Z M62,29 C63.6568542,29 65,27.6568542 65,26 C65,24.3431458 63.6568542,23 62,23 C60.3431458,23 59,24.3431458 59,26 C59,27.6568542 60.3431458,29 62,29 Z M62,77 C63.6568542,77 65,75.6568542 65,74 C65,72.3431458 63.6568542,71 62,71 C60.3431458,71 59,72.3431458 59,74 C59,75.6568542 60.3431458,77 62,77 Z M38,53 C39.6568542,53 41,51.6568542 41,50 C41,48.3431458 39.6568542,47 38,47 C36.3431458,47 35,48.3431458 35,50 C35,51.6568542 36.3431458,53 38,53 Z"></path></g></g></svg>